<mxfile host="app.diagrams.net" modified="2023-05-09T06:52:47.728Z" agent="Mozilla/5.0 (Windows NT 10.0; Win64; x64) AppleWebKit/537.36 (KHTML, like Gecko) Chrome/113.0.0.0 Safari/537.36" etag="zKFLj4Z-d59YeUZp0eKY" version="21.2.9" type="github">
  <diagram id="aS9pjdUC0Do7hMSleVWt" name="第 1 页">
    <mxGraphModel dx="1793" dy="985" grid="1" gridSize="10" guides="1" tooltips="1" connect="1" arrows="1" fold="1" page="1" pageScale="1" pageWidth="2336" pageHeight="1654" background="none" math="0" shadow="0">
      <root>
        <mxCell id="0" />
        <mxCell id="1" parent="0" />
        <mxCell id="7LPtwlAG4lGF97Sh4nB2-2" value="单点登录&lt;br&gt;id.elecnest.cn" style="swimlane;whiteSpace=wrap;html=1;startSize=43;" vertex="1" parent="1">
          <mxGeometry x="247" y="21" width="168" height="1559" as="geometry" />
        </mxCell>
        <mxCell id="7LPtwlAG4lGF97Sh4nB2-10" value="开始" style="rounded=1;whiteSpace=wrap;html=1;" vertex="1" parent="7LPtwlAG4lGF97Sh4nB2-2">
          <mxGeometry x="58" y="61" width="52" height="27" as="geometry" />
        </mxCell>
        <mxCell id="7LPtwlAG4lGF97Sh4nB2-12" value="结束" style="rounded=1;whiteSpace=wrap;html=1;" vertex="1" parent="7LPtwlAG4lGF97Sh4nB2-2">
          <mxGeometry x="62" y="492" width="52" height="27" as="geometry" />
        </mxCell>
        <mxCell id="7LPtwlAG4lGF97Sh4nB2-34" value="重定向到专家端" style="rounded=0;whiteSpace=wrap;html=1;" vertex="1" parent="7LPtwlAG4lGF97Sh4nB2-2">
          <mxGeometry x="34" y="130" width="100" height="34" as="geometry" />
        </mxCell>
        <mxCell id="7LPtwlAG4lGF97Sh4nB2-19" value="system服务" style="swimlane;whiteSpace=wrap;html=1;startSize=43;" vertex="1" parent="1">
          <mxGeometry x="829" y="21" width="256" height="1559" as="geometry" />
        </mxCell>
        <mxCell id="7LPtwlAG4lGF97Sh4nB2-58" value="&lt;div style=&quot;&quot;&gt;&lt;span style=&quot;background-color: initial;&quot;&gt;1、查询所有租户数据源配置信息&lt;/span&gt;&lt;/div&gt;2、用手机号码从所有数据源查询用户数据&lt;br&gt;3、查询用户的租户信息和数据源信息封装进DTO" style="rounded=0;whiteSpace=wrap;html=1;align=left;" vertex="1" parent="7LPtwlAG4lGF97Sh4nB2-19">
          <mxGeometry x="61" y="356" width="134" height="130" as="geometry" />
        </mxCell>
        <mxCell id="7LPtwlAG4lGF97Sh4nB2-71" value="1、设置数据源到ThreadLocal&lt;br&gt;2、查询用户信息、租户、岗位、角色、菜单权限" style="rounded=0;whiteSpace=wrap;html=1;align=left;" vertex="1" parent="7LPtwlAG4lGF97Sh4nB2-19">
          <mxGeometry x="44.5" y="849" width="167" height="57" as="geometry" />
        </mxCell>
        <mxCell id="7LPtwlAG4lGF97Sh4nB2-22" value="auth服务" style="swimlane;whiteSpace=wrap;html=1;startSize=43;" vertex="1" parent="1">
          <mxGeometry x="583" y="21" width="246" height="1559" as="geometry" />
        </mxCell>
        <mxCell id="7LPtwlAG4lGF97Sh4nB2-45" value="调用单点登录服务" style="rounded=0;whiteSpace=wrap;html=1;" vertex="1" parent="7LPtwlAG4lGF97Sh4nB2-22">
          <mxGeometry x="73" y="194" width="100" height="34" as="geometry" />
        </mxCell>
        <mxCell id="7LPtwlAG4lGF97Sh4nB2-54" style="edgeStyle=orthogonalEdgeStyle;rounded=0;orthogonalLoop=1;jettySize=auto;html=1;exitX=0.5;exitY=1;exitDx=0;exitDy=0;entryX=0.5;entryY=0;entryDx=0;entryDy=0;" edge="1" parent="7LPtwlAG4lGF97Sh4nB2-22" source="7LPtwlAG4lGF97Sh4nB2-49" target="7LPtwlAG4lGF97Sh4nB2-52">
          <mxGeometry relative="1" as="geometry" />
        </mxCell>
        <mxCell id="7LPtwlAG4lGF97Sh4nB2-57" value="redis缓存没数据" style="edgeLabel;html=1;align=center;verticalAlign=middle;resizable=0;points=[];" vertex="1" connectable="0" parent="7LPtwlAG4lGF97Sh4nB2-54">
          <mxGeometry x="-0.1777" relative="1" as="geometry">
            <mxPoint as="offset" />
          </mxGeometry>
        </mxCell>
        <mxCell id="7LPtwlAG4lGF97Sh4nB2-49" value="从redis缓存查用户信息（ence:user:login）" style="rounded=0;whiteSpace=wrap;html=1;" vertex="1" parent="7LPtwlAG4lGF97Sh4nB2-22">
          <mxGeometry x="56" y="282" width="134" height="38" as="geometry" />
        </mxCell>
        <mxCell id="7LPtwlAG4lGF97Sh4nB2-52" value="调用system服务&lt;br&gt;（/new/inner/loginInfo&lt;span style=&quot;background-color: initial;&quot;&gt;）&lt;/span&gt;" style="rounded=0;whiteSpace=wrap;html=1;" vertex="1" parent="7LPtwlAG4lGF97Sh4nB2-22">
          <mxGeometry x="56" y="402" width="134" height="38" as="geometry" />
        </mxCell>
        <mxCell id="7LPtwlAG4lGF97Sh4nB2-66" style="edgeStyle=orthogonalEdgeStyle;rounded=0;orthogonalLoop=1;jettySize=auto;html=1;exitX=0.5;exitY=1;exitDx=0;exitDy=0;entryX=0.5;entryY=0;entryDx=0;entryDy=0;" edge="1" parent="7LPtwlAG4lGF97Sh4nB2-22" source="7LPtwlAG4lGF97Sh4nB2-62" target="7LPtwlAG4lGF97Sh4nB2-64">
          <mxGeometry relative="1" as="geometry" />
        </mxCell>
        <mxCell id="7LPtwlAG4lGF97Sh4nB2-62" value="缓存用户信息到redis&lt;br&gt;（ence:user:login）" style="rounded=0;whiteSpace=wrap;html=1;" vertex="1" parent="7LPtwlAG4lGF97Sh4nB2-22">
          <mxGeometry x="56" y="507" width="134" height="38" as="geometry" />
        </mxCell>
        <mxCell id="7LPtwlAG4lGF97Sh4nB2-68" style="edgeStyle=orthogonalEdgeStyle;rounded=0;orthogonalLoop=1;jettySize=auto;html=1;exitX=0.5;exitY=1;exitDx=0;exitDy=0;" edge="1" parent="7LPtwlAG4lGF97Sh4nB2-22" source="7LPtwlAG4lGF97Sh4nB2-64" target="7LPtwlAG4lGF97Sh4nB2-67">
          <mxGeometry relative="1" as="geometry" />
        </mxCell>
        <mxCell id="7LPtwlAG4lGF97Sh4nB2-64" value="根据租户状态等过滤无效数据" style="rounded=0;whiteSpace=wrap;html=1;" vertex="1" parent="7LPtwlAG4lGF97Sh4nB2-22">
          <mxGeometry x="56" y="594" width="134" height="38" as="geometry" />
        </mxCell>
        <mxCell id="7LPtwlAG4lGF97Sh4nB2-70" style="edgeStyle=orthogonalEdgeStyle;rounded=0;orthogonalLoop=1;jettySize=auto;html=1;exitX=0.5;exitY=1;exitDx=0;exitDy=0;entryX=0.5;entryY=0;entryDx=0;entryDy=0;" edge="1" parent="7LPtwlAG4lGF97Sh4nB2-22" source="7LPtwlAG4lGF97Sh4nB2-67" target="7LPtwlAG4lGF97Sh4nB2-69">
          <mxGeometry relative="1" as="geometry" />
        </mxCell>
        <mxCell id="7LPtwlAG4lGF97Sh4nB2-67" value="查询用户的租户信息&lt;br&gt;同样先查redis再查system服务" style="rounded=0;whiteSpace=wrap;html=1;" vertex="1" parent="7LPtwlAG4lGF97Sh4nB2-22">
          <mxGeometry x="56" y="681" width="134" height="59" as="geometry" />
        </mxCell>
        <mxCell id="7LPtwlAG4lGF97Sh4nB2-69" value="取第一条数据调用system服务查询登录信息&lt;br&gt;/login/inner/loginInfo/" style="rounded=0;whiteSpace=wrap;html=1;align=center;" vertex="1" parent="7LPtwlAG4lGF97Sh4nB2-22">
          <mxGeometry x="48" y="784" width="150" height="57" as="geometry" />
        </mxCell>
        <mxCell id="7LPtwlAG4lGF97Sh4nB2-75" value="生成token（待续）" style="rounded=0;whiteSpace=wrap;html=1;align=center;" vertex="1" parent="7LPtwlAG4lGF97Sh4nB2-22">
          <mxGeometry x="48" y="929" width="150" height="57" as="geometry" />
        </mxCell>
        <mxCell id="7LPtwlAG4lGF97Sh4nB2-25" value="专家端&lt;br&gt;ipd.elecnest.cn" style="swimlane;whiteSpace=wrap;html=1;startSize=43;" vertex="1" parent="1">
          <mxGeometry x="415" y="21" width="168" height="1559" as="geometry" />
        </mxCell>
        <mxCell id="7LPtwlAG4lGF97Sh4nB2-38" value="调用auth登录接口&lt;br&gt;（/tenant/login）" style="rounded=0;whiteSpace=wrap;html=1;" vertex="1" parent="7LPtwlAG4lGF97Sh4nB2-25">
          <mxGeometry x="34" y="184" width="100" height="54" as="geometry" />
        </mxCell>
        <mxCell id="7LPtwlAG4lGF97Sh4nB2-28" value="单点登录服务" style="swimlane;whiteSpace=wrap;html=1;startSize=43;" vertex="1" parent="1">
          <mxGeometry x="1085" y="21" width="168" height="1559" as="geometry" />
        </mxCell>
        <mxCell id="7LPtwlAG4lGF97Sh4nB2-30" value="登录" style="rounded=0;whiteSpace=wrap;html=1;" vertex="1" parent="7LPtwlAG4lGF97Sh4nB2-28">
          <mxGeometry x="40" y="93" width="88" height="28" as="geometry" />
        </mxCell>
        <mxCell id="7LPtwlAG4lGF97Sh4nB2-46" value="返回用户信息" style="rounded=0;whiteSpace=wrap;html=1;" vertex="1" parent="7LPtwlAG4lGF97Sh4nB2-28">
          <mxGeometry x="34" y="194" width="100" height="34" as="geometry" />
        </mxCell>
        <mxCell id="7LPtwlAG4lGF97Sh4nB2-32" style="edgeStyle=orthogonalEdgeStyle;rounded=0;orthogonalLoop=1;jettySize=auto;html=1;exitX=1;exitY=0.5;exitDx=0;exitDy=0;entryX=0.5;entryY=0;entryDx=0;entryDy=0;" edge="1" parent="1" source="7LPtwlAG4lGF97Sh4nB2-10" target="7LPtwlAG4lGF97Sh4nB2-30">
          <mxGeometry relative="1" as="geometry" />
        </mxCell>
        <mxCell id="7LPtwlAG4lGF97Sh4nB2-33" value="用户名和密码" style="edgeLabel;html=1;align=center;verticalAlign=middle;resizable=0;points=[];" vertex="1" connectable="0" parent="7LPtwlAG4lGF97Sh4nB2-32">
          <mxGeometry x="-0.0948" y="-2" relative="1" as="geometry">
            <mxPoint as="offset" />
          </mxGeometry>
        </mxCell>
        <mxCell id="7LPtwlAG4lGF97Sh4nB2-36" style="edgeStyle=orthogonalEdgeStyle;rounded=0;orthogonalLoop=1;jettySize=auto;html=1;exitX=0.5;exitY=1;exitDx=0;exitDy=0;entryX=1;entryY=0.5;entryDx=0;entryDy=0;" edge="1" parent="1" source="7LPtwlAG4lGF97Sh4nB2-30" target="7LPtwlAG4lGF97Sh4nB2-34">
          <mxGeometry relative="1" as="geometry" />
        </mxCell>
        <mxCell id="7LPtwlAG4lGF97Sh4nB2-37" value="相应头返回token与uid" style="edgeLabel;html=1;align=center;verticalAlign=middle;resizable=0;points=[];" vertex="1" connectable="0" parent="7LPtwlAG4lGF97Sh4nB2-36">
          <mxGeometry x="0.1398" relative="1" as="geometry">
            <mxPoint as="offset" />
          </mxGeometry>
        </mxCell>
        <mxCell id="7LPtwlAG4lGF97Sh4nB2-39" style="edgeStyle=orthogonalEdgeStyle;rounded=0;orthogonalLoop=1;jettySize=auto;html=1;exitX=0.5;exitY=1;exitDx=0;exitDy=0;entryX=0;entryY=0.5;entryDx=0;entryDy=0;" edge="1" parent="1" source="7LPtwlAG4lGF97Sh4nB2-34" target="7LPtwlAG4lGF97Sh4nB2-38">
          <mxGeometry relative="1" as="geometry" />
        </mxCell>
        <mxCell id="7LPtwlAG4lGF97Sh4nB2-43" style="edgeStyle=orthogonalEdgeStyle;rounded=0;orthogonalLoop=1;jettySize=auto;html=1;exitX=1;exitY=0.5;exitDx=0;exitDy=0;entryX=0;entryY=0.5;entryDx=0;entryDy=0;" edge="1" parent="1" source="7LPtwlAG4lGF97Sh4nB2-38" target="7LPtwlAG4lGF97Sh4nB2-45">
          <mxGeometry relative="1" as="geometry">
            <mxPoint x="652" y="234.0000000000001" as="targetPoint" />
          </mxGeometry>
        </mxCell>
        <mxCell id="7LPtwlAG4lGF97Sh4nB2-44" value="token与uid" style="edgeLabel;html=1;align=center;verticalAlign=middle;resizable=0;points=[];" vertex="1" connectable="0" parent="7LPtwlAG4lGF97Sh4nB2-43">
          <mxGeometry x="-0.3042" y="1" relative="1" as="geometry">
            <mxPoint as="offset" />
          </mxGeometry>
        </mxCell>
        <mxCell id="7LPtwlAG4lGF97Sh4nB2-47" style="edgeStyle=orthogonalEdgeStyle;rounded=0;orthogonalLoop=1;jettySize=auto;html=1;exitX=1;exitY=0.5;exitDx=0;exitDy=0;entryX=0;entryY=0.5;entryDx=0;entryDy=0;" edge="1" parent="1" source="7LPtwlAG4lGF97Sh4nB2-45" target="7LPtwlAG4lGF97Sh4nB2-46">
          <mxGeometry relative="1" as="geometry" />
        </mxCell>
        <mxCell id="7LPtwlAG4lGF97Sh4nB2-48" value="token与uid" style="edgeLabel;html=1;align=center;verticalAlign=middle;resizable=0;points=[];" vertex="1" connectable="0" parent="7LPtwlAG4lGF97Sh4nB2-47">
          <mxGeometry x="0.1728" y="-3" relative="1" as="geometry">
            <mxPoint as="offset" />
          </mxGeometry>
        </mxCell>
        <mxCell id="7LPtwlAG4lGF97Sh4nB2-50" style="edgeStyle=orthogonalEdgeStyle;rounded=0;orthogonalLoop=1;jettySize=auto;html=1;exitX=0.5;exitY=1;exitDx=0;exitDy=0;entryX=1;entryY=0.5;entryDx=0;entryDy=0;" edge="1" parent="1" source="7LPtwlAG4lGF97Sh4nB2-46" target="7LPtwlAG4lGF97Sh4nB2-49">
          <mxGeometry relative="1" as="geometry" />
        </mxCell>
        <mxCell id="7LPtwlAG4lGF97Sh4nB2-51" value="用户手机号" style="edgeLabel;html=1;align=center;verticalAlign=middle;resizable=0;points=[];" vertex="1" connectable="0" parent="7LPtwlAG4lGF97Sh4nB2-50">
          <mxGeometry x="0.2492" y="1" relative="1" as="geometry">
            <mxPoint as="offset" />
          </mxGeometry>
        </mxCell>
        <mxCell id="7LPtwlAG4lGF97Sh4nB2-59" style="edgeStyle=orthogonalEdgeStyle;rounded=0;orthogonalLoop=1;jettySize=auto;html=1;exitX=1;exitY=0.5;exitDx=0;exitDy=0;entryX=0;entryY=0.5;entryDx=0;entryDy=0;" edge="1" parent="1" source="7LPtwlAG4lGF97Sh4nB2-52" target="7LPtwlAG4lGF97Sh4nB2-58">
          <mxGeometry relative="1" as="geometry" />
        </mxCell>
        <mxCell id="7LPtwlAG4lGF97Sh4nB2-61" value="手机号" style="edgeLabel;html=1;align=center;verticalAlign=middle;resizable=0;points=[];" vertex="1" connectable="0" parent="7LPtwlAG4lGF97Sh4nB2-59">
          <mxGeometry x="0.1402" y="-1" relative="1" as="geometry">
            <mxPoint as="offset" />
          </mxGeometry>
        </mxCell>
        <mxCell id="7LPtwlAG4lGF97Sh4nB2-63" style="edgeStyle=orthogonalEdgeStyle;rounded=0;orthogonalLoop=1;jettySize=auto;html=1;exitX=0.5;exitY=1;exitDx=0;exitDy=0;entryX=1;entryY=0.5;entryDx=0;entryDy=0;" edge="1" parent="1" source="7LPtwlAG4lGF97Sh4nB2-58" target="7LPtwlAG4lGF97Sh4nB2-62">
          <mxGeometry relative="1" as="geometry" />
        </mxCell>
        <mxCell id="7LPtwlAG4lGF97Sh4nB2-65" value="用户信息（多条）" style="edgeLabel;html=1;align=center;verticalAlign=middle;resizable=0;points=[];" vertex="1" connectable="0" parent="7LPtwlAG4lGF97Sh4nB2-63">
          <mxGeometry x="-0.0628" y="-1" relative="1" as="geometry">
            <mxPoint as="offset" />
          </mxGeometry>
        </mxCell>
        <mxCell id="7LPtwlAG4lGF97Sh4nB2-72" style="edgeStyle=orthogonalEdgeStyle;rounded=0;orthogonalLoop=1;jettySize=auto;html=1;exitX=1;exitY=0.5;exitDx=0;exitDy=0;entryX=0.5;entryY=0;entryDx=0;entryDy=0;" edge="1" parent="1" source="7LPtwlAG4lGF97Sh4nB2-69" target="7LPtwlAG4lGF97Sh4nB2-71">
          <mxGeometry relative="1" as="geometry" />
        </mxCell>
        <mxCell id="7LPtwlAG4lGF97Sh4nB2-74" value="租户id、手机号" style="edgeLabel;html=1;align=center;verticalAlign=middle;resizable=0;points=[];" vertex="1" connectable="0" parent="7LPtwlAG4lGF97Sh4nB2-72">
          <mxGeometry x="-0.0644" relative="1" as="geometry">
            <mxPoint as="offset" />
          </mxGeometry>
        </mxCell>
        <mxCell id="7LPtwlAG4lGF97Sh4nB2-76" style="edgeStyle=orthogonalEdgeStyle;rounded=0;orthogonalLoop=1;jettySize=auto;html=1;exitX=0.5;exitY=1;exitDx=0;exitDy=0;entryX=1;entryY=0.5;entryDx=0;entryDy=0;" edge="1" parent="1" source="7LPtwlAG4lGF97Sh4nB2-71" target="7LPtwlAG4lGF97Sh4nB2-75">
          <mxGeometry relative="1" as="geometry" />
        </mxCell>
        <mxCell id="7LPtwlAG4lGF97Sh4nB2-77" value="用户登录信息" style="edgeLabel;html=1;align=center;verticalAlign=middle;resizable=0;points=[];" vertex="1" connectable="0" parent="7LPtwlAG4lGF97Sh4nB2-76">
          <mxGeometry x="0.0612" y="-3" relative="1" as="geometry">
            <mxPoint as="offset" />
          </mxGeometry>
        </mxCell>
      </root>
    </mxGraphModel>
  </diagram>
</mxfile>
